<svg width="180" height="180" viewBox="0 0 180 180" fill="none" xmlns="http://www.w3.org/2000/svg">
  <style>
    @media (prefers-color-scheme: light) {
      .background { fill: #2a6f77; }
      .foreground { fill: white; stroke: white; }
    }
    @media (prefers-color-scheme: dark) {
      .background { fill: #e8f4f4; }
      .foreground { fill: #1f2a2e; stroke: #1f2a2e; }
    }
  </style>
  <rect class="background" width="180" height="180" rx="40" />
  <g transform="translate(18, 18) scale(3)">
    <path class="foreground" d="M24 8v32" stroke-width="2.8" stroke-linecap="round" fill="none" />
    <circle class="foreground" cx="24" cy="12.5" r="3.4" stroke="none" />
    <path class="foreground" d="M24 16.2c-3.2 1.4-5.4 4.6-5.4 8.4v2.8c0 1.2.9 2.2 2.1 2.4l3.3.6 3.3-.6c1.2-.2 2.1-1.2 2.1-2.4v-2.8c0-3.8-2.2-7-5.4-8.4Z" stroke="none" />
    <path class="foreground" d="M18.8 20.2c-3.6 1.2-6.4 3.8-7.6 7.2" stroke-width="2.4" stroke-linecap="round" fill="none" />
    <path class="foreground" d="M29.2 20.2c3.6 1.2 6.4 3.8 7.6 7.2" stroke-width="2.4" stroke-linecap="round" fill="none" />
    <path class="foreground" d="M18 40.5h12" stroke-width="2.4" stroke-linecap="round" fill="none" />
  </g>
</svg>
